<?xml version="1.0" encoding="utf-8"?>
<!-- Generator: Adobe Illustrator 26.0.2, SVG Export Plug-In . SVG Version: 6.00 Build 0)  -->
<svg version="1.1" xmlns="http://www.w3.org/2000/svg" xmlns:xlink="http://www.w3.org/1999/xlink" x="0px" y="0px"
	 viewBox="0 0 841.89 595.28" style="enable-background:new 0 0 841.89 595.28;" xml:space="preserve">
<style type="text/css">
	.st0{fill:#006EAB;}
</style>
<g id="Layer_2">
</g>
<g id="Layer_3">
</g>
<g id="Layer_1">
	<g>
		<g>
			<path class="st0" d="M177.82,290.24l-1.93,0.94c-5.44,2.63-12.75,5.31-25.77,5.31c-11.72,0-21.42-4.32-28.05-12.51
				c-5.7-7.04-8.85-16.61-8.85-26.96c0-23.31,13.76-38.37,35.06-38.37c11.29,0,20.68,4.03,27.97,11.98l18.19-15.76
				c-10.56-11.9-26.58-18.43-45.42-18.43c-36,0-63.15,26.04-63.15,60.57c0,34.64,27.46,60.75,63.88,60.75
				c27.41,0,41.25-7.71,51.01-15.49v-49.01h-47.77v18.89h24.83V290.24z"/>
			<path class="st0" d="M302.51,272.1c13.41-6.13,20.8-17.95,20.8-33.29c0-24.84-18.07-40.89-46.04-40.89h-54.52v118.2h26.62v-39.17
				h24.2l0.99,1.74l21.09,37.43h28.25l-24.82-42.44L302.51,272.1z M275.61,258.23h-26.25v-38.85h26.25c13.28,0,20.9,7.08,20.9,19.43
				C296.51,251.15,288.89,258.23,275.61,258.23z"/>
			<path class="st0" d="M704.18,254.68c-16.77,0-25.64-9.24-25.64-26.72v-30.05h-25.52v30.05c0,26.39,12.89,43.75,36.29,48.89
				l1.92,0.42v38.83h25.53v-38.73l1.94-0.41c23.39-4.99,36.28-22.4,36.28-49v-30.05H730v30.05
				C730,245.44,721.07,254.68,704.18,254.68z"/>
			<path class="st0" d="M567.94,272.19v-74.28h-25.52v74.28c0,13.97-6.67,21.67-18.79,21.67c-12.11,0-18.78-7.7-18.78-21.67v-74.28
				h-25.52v74.28c0,28.11,16.22,45.57,42.32,45.57c13.35,0,24.28-4.93,31.61-14.24l1.93-2.45l1.93,2.45
				c7.32,9.32,18.25,14.24,31.61,14.24c26.11,0,42.32-17.46,42.32-45.57v-74.28h-25.52v74.28c0,13.97-6.67,21.67-18.78,21.67
				C574.62,293.86,567.94,286.17,567.94,272.19z"/>
			<g>
				<path class="st0" d="M459.9,257.53c0-33.74-27.35-61.09-61.09-61.09c-33.74,0-61.09,27.35-61.09,61.09
					c0,29.84,21.4,54.68,49.68,60.02c5.58,0.74,7.7-0.81,8.12-5.06c0.7-11.02,0.66-22.04,0.66-27.35c0-15.11-7.23-15.76-18.82-19.97
					c-11.78-4.28-24.1-10.48-24.1-24.49c0-9.51,7.71-17.22,17.22-17.22c15.02,0,24.69,18.51,28.23,37.51l0,0
					c0,0,0.02,0.09,0.09,0.09c0.07,0,0.09-0.09,0.09-0.09l0,0c3.53-19,13.2-37.51,28.23-37.51c9.51,0,17.22,7.71,17.22,17.22
					c0,14.01-12.32,20.21-24.1,24.49c-11.59,4.22-18.82,4.86-18.82,19.97c0,5.31-0.04,16.34,0.66,27.35
					c0.42,4.25,2.54,5.79,8.12,5.06C438.5,312.21,459.9,287.37,459.9,257.53z"/>
			</g>
		</g>
	</g>
</g>
</svg>
